# xmcd CD database file
#
# Track frame offsets:
#	150
#	17546
#	35979
#	53409
#
# Disc length: 937 seconds
#
# Revision: 2
# Processed by: cddbd v1.4PL0 Copyright (c) Steve Scherf et al.
# Submitted via: CDex 1.40Release
#
DISCID=2803a704
DTITLE=Grinspoon - No Reason
DYEAR=2002
DGENRE=Hard Rock
TTITLE0=No Reason
TTITLE1=Just Let It Go
TTITLE2=Cluedo
TTITLE3=No Reason (Live @ The Wireless)
EXTD=YEAR: 2002 ID3G: 79
EXTT0=
EXTT1=
EXTT2=
EXTT3=
PLAYORDER=
